<svg id="Layer_1" data-name="Layer 1" xmlns="http://www.w3.org/2000/svg" viewBox="0 0 592.95 592.95"><defs><style>.cls-1,.cls-3{fill:#f5cd56;}.cls-1,.cls-4,.cls-7,.cls-9{stroke:#f9e39f;}.cls-1,.cls-12,.cls-4,.cls-7,.cls-9{stroke-miterlimit:10;}.cls-1,.cls-7{stroke-width:5px;}.cls-2,.cls-4{fill:#f9e39f;}.cls-12,.cls-4{stroke-width:0.3px;}.cls-5{font-size:26px;fill:#00a2df;font-family:ProximaNova-Bold, Proxima Nova;font-weight:700;}.cls-6{fill:#1ea1dc;}.cls-10,.cls-7,.cls-9{fill:none;}.cls-8{fill:#1ea0dc;}.cls-10,.cls-12{stroke:#fff;}.cls-10{stroke-linecap:round;stroke-linejoin:round;}.cls-11,.cls-12{fill:#fff;}</style></defs><path class="cls-1" d="M436.09,254.75A139.77,139.77,0,0,0,289.72,115.14C218.86,118.4,161,175.39,156.82,246.21a139.55,139.55,0,0,0,52.64,118c16.2,12.86,26,32.12,26,52.8v1.3A23.51,23.51,0,0,0,259,441.85h72.34a23.63,23.63,0,0,0,23.63-23.63v-.53c0-20.45,9.89-39.43,26.14-51.84A139.48,139.48,0,0,0,436.09,254.75Z"/><path class="cls-2" d="M408.38,245.62a37,37,0,0,1,9.06-64.22q-3.51-6.24-7.6-12.11A50.28,50.28,0,0,0,399,175.84L389,170.11a3.7,3.7,0,0,0-4.69,1l-9.95,13.31a3.7,3.7,0,0,0,.4,4.76l8.32,7.93a51.05,51.05,0,0,0-3.28,12.84l-11.08,3a3.7,3.7,0,0,0-2.62,4l2.36,16.45a3.7,3.7,0,0,0,3.64,3.09l11.49-.29a49.9,49.9,0,0,0,6.78,11.4l-5.73,9.95a3.69,3.69,0,0,0,1,4.68l13.31,9.95a3.68,3.68,0,0,0,4.76-.4l7.92-8.31a50.5,50.5,0,0,0,12.85,3.28l3,11.09a3.7,3.7,0,0,0,4,2.62l2.19-.32a146.94,146.94,0,0,0,2.49-27c0-.2,0-.39,0-.58A36.87,36.87,0,0,1,408.38,245.62Z"/><path class="cls-2" d="M335.72,121.17,333,127.11a32.87,32.87,0,0,0-8.6.69l-4.17-6.19a2.41,2.41,0,0,0-3-.78l-9.63,4.94a2.42,2.42,0,0,0-1.13,2.9l2.59,7a32.84,32.84,0,0,0-5.59,6.58l-7.33-1.43a2.41,2.41,0,0,0-2.68,1.58l-3.32,10.29a2.41,2.41,0,0,0,1.25,2.85l6.79,3.13a32.41,32.41,0,0,0,.69,8.59l-6.2,4.18a2.42,2.42,0,0,0-.77,3l4.92,9.63a2.4,2.4,0,0,0,2.89,1.13l7-2.59a32.74,32.74,0,0,0,6.58,5.58l-1.43,7.34a2.4,2.4,0,0,0,1.58,2.67l10.29,3.33a2.41,2.41,0,0,0,2.85-1.25l3.13-6.79a33.31,33.31,0,0,0,8.6-.68l4.17,6.19a2.41,2.41,0,0,0,3,.78l9.63-4.94a2.4,2.4,0,0,0,1.13-2.9l-2.59-7a33.12,33.12,0,0,0,5.59-6.58l7.33,1.43a2.39,2.39,0,0,0,2.68-1.58l3.32-10.29a2.39,2.39,0,0,0-1.24-2.85L364.53,162a33,33,0,0,0-.69-8.61l6.19-4.16a2.42,2.42,0,0,0,.78-3l-4.93-9.63a2.42,2.42,0,0,0-2.9-1.13L356,138a32.68,32.68,0,0,0-6.57-5.58l1.07-5.5A154.72,154.72,0,0,0,335.72,121.17ZM347,165.35a16.42,16.42,0,1,1-10.59-20.67A16.43,16.43,0,0,1,347,165.35Z"/><path class="cls-2" d="M275.84,315.69l-12.36-4.59A58.76,58.76,0,0,0,261.11,296l10.34-8.16a4.24,4.24,0,0,0,.95-5.41l-10-16.28a4.26,4.26,0,0,0-5.26-1.61l-12,5.5a57.88,57.88,0,0,0-12.32-8.94l1.54-13.1a4.26,4.26,0,0,0-3.15-4.5l-18.56-4.46a4.25,4.25,0,0,0-4.84,2.58L203.28,254a58.61,58.61,0,0,0-15.05,2.36l-8.17-10.33a4.24,4.24,0,0,0-5.4-1l-16.29,10a4.27,4.27,0,0,0-1.59,5.26l5.49,12a57.58,57.58,0,0,0-4.14,4.92,214.8,214.8,0,0,0,54.43,93.58,57.5,57.5,0,0,0,8.89-1.86l8.17,10.34a4.26,4.26,0,0,0,5.41,1l16.28-10a4.26,4.26,0,0,0,1.6-5.26l-5.5-12a58.18,58.18,0,0,0,9-12.32l13.1,1.53a4.23,4.23,0,0,0,4.5-3.14l4.46-18.56A4.23,4.23,0,0,0,275.84,315.69Zm-42.67,3.78a29.13,29.13,0,1,1-21.51-35.13A29.12,29.12,0,0,1,233.17,319.47Z"/><path class="cls-2" d="M348.82,235.83,347,241.46a26.52,26.52,0,0,0-6.71,1.32l-.14-.16a39.85,39.85,0,0,1-.76,10.78,17.11,17.11,0,1,1-7.63,16.48,40.09,40.09,0,0,1-13,10.8,1.91,1.91,0,0,0,.14,1.77l4.76,7.13a1.91,1.91,0,0,0,2.39.63l5.27-2.68a25.69,25.69,0,0,0,5.69,3.8l-.46,5.91a1.91,1.91,0,0,0,1.49,2l8.4,1.68a1.91,1.91,0,0,0,2.13-1.24l1.85-5.63a26.12,26.12,0,0,0,6.7-1.33l3.85,4.5a1.91,1.91,0,0,0,2.44.33l7.13-4.75a1.91,1.91,0,0,0,.63-2.38l-2.68-5.28a25.62,25.62,0,0,0,3.8-5.68l5.9.45a1.89,1.89,0,0,0,2-1.48l1.68-8.41a1.89,1.89,0,0,0-1.24-2.12L375,266a26.11,26.11,0,0,0-1.33-6.71l4.5-3.84a1.9,1.9,0,0,0,.33-2.44l-4.76-7.13a1.9,1.9,0,0,0-2.38-.63l-5.28,2.68a25.86,25.86,0,0,0-5.68-3.8l.46-5.91a1.91,1.91,0,0,0-1.49-2l-8.4-1.68A1.9,1.9,0,0,0,348.82,235.83Z"/><circle class="cls-3" cx="296.6" cy="175.85" r="14"/><circle class="cls-3" cx="296.6" cy="320.85" r="14"/><circle class="cls-3" cx="224.6" cy="248.85" r="14"/><circle class="cls-3" cx="368.73" cy="248.56" r="14"/><circle class="cls-3" cx="368.6" cy="175.85" r="14"/><path class="cls-4" d="M427.05,248.36v0A13.68,13.68,0,0,1,434.82,236l-.12-.79a14.42,14.42,0,0,0,1.17,26.7c0-.26,0-.53,0-.79A13.71,13.71,0,0,1,427.05,248.36Z"/><text class="cls-5" transform="translate(124.79 314.16) rotate(-105.29)">M</text><text class="cls-5" transform="matrix(-0.11, -0.99, 0.99, -0.11, 117.57, 284.83)">U</text><text class="cls-5" transform="translate(115.36 257.76) rotate(-88.56)">L</text><text class="cls-5" transform="matrix(0.15, -0.99, 0.99, 0.15, 116.36, 236.02)">E</text><text class="cls-5" transform="translate(120.31 213.11) rotate(-74)">S</text><text class="cls-5" transform="matrix(0.41, -0.91, 0.91, 0.41, 127.25, 190.46)">O</text><text class="cls-5" transform="matrix(0.53, -0.85, 0.85, 0.53, 139.4, 165.3)">F</text><text class="cls-5" transform="matrix(0.64, -0.77, 0.77, 0.64, 152.09, 146.17)">T</text><text class="cls-5" transform="translate(167.48 128.58) rotate(-44.39)"> </text><text class="cls-5" transform="matrix(0.79, -0.62, 0.62, 0.79, 178.25, 118.31)">P</text><text class="cls-5" transform="translate(197.67 103.69) rotate(-30.45)">R</text><text class="cls-5" transform="matrix(0.93, -0.38, 0.38, 0.93, 219.26, 91.55)">O</text><text class="cls-5" transform="translate(245.36 81.66) rotate(-13.37)">G</text><text class="cls-5" transform="matrix(1, -0.09, 0.09, 1, 271.57, 76.11)">R</text><text class="cls-5" transform="translate(296.33 74.39) rotate(2.72)">A</text><text class="cls-5" transform="translate(322.06 76.05) rotate(11.56)">M</text><text class="cls-5" transform="translate(351.57 83.11) rotate(18.76)"> </text><text class="cls-5" transform="translate(365.6 88.06) rotate(25.12)">&amp;</text><text class="cls-5" transform="translate(387.9 99.32) rotate(31.43)"> </text><text class="cls-5" transform="matrix(0.79, 0.62, -0.62, 0.79, 400.51, 107.14)">O</text><text class="cls-5" transform="translate(422.02 124.97) rotate(46.42)">P</text><text class="cls-5" transform="translate(438.38 142.99) rotate(53.92)">E</text><text class="cls-5" transform="matrix(0.48, 0.88, -0.88, 0.48, 451.69, 162.07)">R</text><text class="cls-5" transform="translate(463.05 184.12) rotate(69.58)">A</text><text class="cls-5" transform="translate(471.04 207.01) rotate(76.89)">T</text><text class="cls-5" transform="translate(475.69 229.86) rotate(83.03)">I</text><text class="cls-5" transform="matrix(0.02, 1, -1, 0.02, 477.31, 245.04)">O</text><text class="cls-5" transform="matrix(-0.15, 0.99, -0.99, -0.15, 476.9, 272.98)">N</text><text class="cls-5" transform="translate(472.26 299.61) rotate(106.5)">S</text><rect class="cls-6" x="237.5" y="454.1" width="117" height="25" rx="12.5"/><rect class="cls-6" x="237.6" y="490.35" width="117" height="25" rx="12.5"/><rect class="cls-6" x="260.6" y="525.35" width="71" height="25" rx="12.5"/><path class="cls-7" d="M436.09,254.75A139.77,139.77,0,0,0,289.72,115.14C218.86,118.4,161,175.39,156.82,246.21a139.55,139.55,0,0,0,52.64,118c16.2,12.86,26,32.12,26,52.8v1.3A23.51,23.51,0,0,0,259,441.85h72.34a23.63,23.63,0,0,0,23.63-23.63v-.53c0-20.45,9.89-39.43,26.14-51.84A139.48,139.48,0,0,0,436.09,254.75Z"/><path class="cls-8" d="M296.25,116.69m0,.73"/><line class="cls-9" x1="223.98" y1="135.2" x2="223.98" y2="161.99"/><line class="cls-9" x1="296.23" y1="117.2" x2="296.23" y2="161.99"/><line class="cls-9" x1="368.48" y1="135.2" x2="368.48" y2="161.99"/><line class="cls-9" x1="223.98" y1="189.94" x2="223.98" y2="234.66"/><line class="cls-9" x1="296.23" y1="189.94" x2="296.23" y2="208.66"/><line class="cls-9" x1="368.48" y1="189.94" x2="368.48" y2="234.66"/><line class="cls-9" x1="223.98" y1="262.65" x2="223.98" y2="307.33"/><line class="cls-9" x1="296.23" y1="287.65" x2="296.23" y2="307.33"/><line class="cls-9" x1="368.48" y1="262.65" x2="368.48" y2="307.33"/><line class="cls-9" x1="223.98" y1="335.38" x2="223.98" y2="380"/><line class="cls-9" x1="296.23" y1="335.38" x2="296.23" y2="380"/><line class="cls-9" x1="368.48" y1="335.38" x2="368.48" y2="380"/><line class="cls-9" x1="296.23" y1="407.87" x2="296.23" y2="441.67"/><line class="cls-9" x1="209.82" y1="175.68" x2="180.78" y2="175.68"/><line class="cls-9" x1="209.82" y1="248.34" x2="165.78" y2="248.34"/><line class="cls-9" x1="209.82" y1="321.01" x2="173.78" y2="321.01"/><line class="cls-9" x1="282.07" y1="175.68" x2="238.03" y2="175.68"/><line class="cls-9" x1="257.07" y1="248.34" x2="238.03" y2="248.34"/><line class="cls-9" x1="282.07" y1="321.01" x2="238.03" y2="321.01"/><line class="cls-9" x1="282.07" y1="393.68" x2="238.03" y2="393.68"/><line class="cls-9" x1="354.31" y1="175.68" x2="310.28" y2="175.68"/><line class="cls-9" x1="354.31" y1="248.34" x2="334.28" y2="248.34"/><line class="cls-9" x1="354.31" y1="321.01" x2="310.28" y2="321.01"/><line class="cls-9" x1="354.31" y1="393.68" x2="310.28" y2="393.68"/><line class="cls-9" x1="411.56" y1="175.68" x2="382.53" y2="175.68"/><line class="cls-9" x1="426.56" y1="248.34" x2="382.53" y2="248.34"/><line class="cls-9" x1="419.56" y1="321.01" x2="382.53" y2="321.01"/><polygon class="cls-10" points="296.54 316.87 287.88 318.72 296.54 320.71 305.3 318.79 296.54 316.87"/><path class="cls-10" d="M291.2,319.75v3.89a11.13,11.13,0,0,0,10.8.22v-4.11"/><polyline class="cls-10" points="296.1 318.79 287.88 318.79 287.88 322.73"/><polygon class="cls-10" points="287.88 322.73 286.76 324.97 288.93 324.97 287.88 322.73"/><path class="cls-10" d="M230.07,245.56a3.93,3.93,0,0,0-3.4-2,4.27,4.27,0,0,0-1.12.16,5,5,0,0,0-8.24,2.53,3.57,3.57,0,0,0,.4,7.11h12a3.92,3.92,0,0,0,.32-7.82Z"/><circle class="cls-11" cx="220.71" cy="249.19" r="1"/><circle class="cls-11" cx="223.94" cy="249.19" r="1"/><circle class="cls-11" cx="227.18" cy="249.19" r="1"/><path class="cls-10" d="M371.76,245.13c.21.86,1.53,1.75,1.53,1.75a2.4,2.4,0,0,1-1.76.21c-2.88.24-3.4-2.94-3.4-2.94s-.92,2.57-1.94,2.78-1.6-.39-2.06.27c0,0-.23.31-.22.43s.78,6.76,5,6.76c0,0,3.47-.09,4.07-5.12a11,11,0,0,0,.08-2.15"/><path class="cls-10" d="M363.91,247.63a1,1,0,0,0-1.1.81,2.11,2.11,0,0,0,1.74,2.12"/><path class="cls-10" d="M372.72,250.47a2,2,0,0,0,1.46-1.77s.15-1.07-1.12-.93"/><path class="cls-10" d="M366.68,253.8v1.34a2.3,2.3,0,0,1-1.56,2.26,20.06,20.06,0,0,1-3.68.77"/><path class="cls-10" d="M370.67,253.8v1.46a2.17,2.17,0,0,0,1.61,2.19c1.79.62,3.27.37,4.1,1.18"/><path class="cls-10" d="M371.56,247.09a4,4,0,0,1-1.11-1.35"/><path class="cls-10" d="M366.18,256.71a3.85,3.85,0,0,0,5,0"/><rect class="cls-10" x="286.96" y="168.49" width="18.54" height="10.62" rx="1.03"/><polyline class="cls-10" points="298.47 179.1 298.47 182.16 300.85 182.86 296.37 182.86 296.09 182.86 291.61 182.86 293.99 182.16 293.99 179.1"/><path class="cls-12" d="M296.14,386.15a7.41,7.41,0,1,0,7.41,7.41h0a7.4,7.4,0,0,0-7.39-7.41Zm0,14.16a6.76,6.76,0,1,1,6.75-6.77v0a6.75,6.75,0,0,1-6.75,6.75Z"/><path class="cls-11" d="M301.47,392.08h0a5.52,5.52,0,0,0-2.44-3.24l-.21.32-2.67,4.19h0l-2.68-4.2-.2-.31a5.6,5.6,0,0,0-2.44,3.24h0a5.43,5.43,0,0,0,.55,4.26,5.52,5.52,0,0,0,2.44,2.22l.49-1.89a3.25,3.25,0,0,1-1.91-3,3.5,3.5,0,0,1,.58-1.93l2.31,3.62H297l2.31-3.62a3.34,3.34,0,0,1,.58,1.93,3.23,3.23,0,0,1-1.91,3l.49,1.89a5.52,5.52,0,0,0,2.44-2.22A5.43,5.43,0,0,0,301.47,392.08Z"/><path class="cls-12" d="M223.85,168.73a7.4,7.4,0,1,0,7.41,7.4,7.42,7.42,0,0,0-7.41-7.4Zm0,14.15a6.75,6.75,0,1,1,6.76-6.75,6.75,6.75,0,0,1-6.76,6.75Z"/><path class="cls-11" d="M229.18,174.66h0a5.61,5.61,0,0,0-2.45-3.24l-.2.33L223.86,176h0l-2.68-4.2-.2-.32a5.6,5.6,0,0,0-2.44,3.24h0a5.43,5.43,0,0,0,.55,4.26,5.52,5.52,0,0,0,2.44,2.22l.49-1.89a3.22,3.22,0,0,1-1.91-3,3.53,3.53,0,0,1,.58-1.94L223,178h1.73l2.31-3.62a3.37,3.37,0,0,1,.58,1.94,3.19,3.19,0,0,1-1.91,3l.49,1.89a5.52,5.52,0,0,0,2.44-2.22A5.34,5.34,0,0,0,229.18,174.66Z"/><path class="cls-12" d="M368.33,168.73a7.4,7.4,0,1,0,7.4,7.4h0A7.4,7.4,0,0,0,368.33,168.73Zm0,14.15a6.75,6.75,0,1,1,6.75-6.75h0a6.75,6.75,0,0,1-6.75,6.75Z"/><path class="cls-11" d="M373.66,174.66h0a5.6,5.6,0,0,0-2.44-3.24l-.21.33L368.33,176h0l-2.68-4.2-.2-.32a5.66,5.66,0,0,0-2.45,3.24h0a5.39,5.39,0,0,0,.56,4.26,5.52,5.52,0,0,0,2.44,2.22l.49-1.89a3.21,3.21,0,0,1-1.92-3,3.54,3.54,0,0,1,.59-1.94l2.31,3.62h1.72l2.32-3.62a3.53,3.53,0,0,1,.58,1.94,3.21,3.21,0,0,1-1.92,3l.5,1.89A5.44,5.44,0,0,0,373.1,179,5.35,5.35,0,0,0,373.66,174.66Z"/><path class="cls-12" d="M368.33,313.48a7.41,7.41,0,1,0,7.4,7.42h0A7.41,7.41,0,0,0,368.33,313.48Zm0,14.16a6.76,6.76,0,1,1,6.75-6.77v0a6.75,6.75,0,0,1-6.75,6.75Z"/><path class="cls-11" d="M373.66,319.42h0a5.52,5.52,0,0,0-2.44-3.24l-.21.32-2.68,4.2h0l-2.68-4.21-.2-.31a5.61,5.61,0,0,0-2.45,3.24h0a5.39,5.39,0,0,0,.56,4.26A5.52,5.52,0,0,0,366,325.9l.49-1.89a3.24,3.24,0,0,1-1.92-2.95,3.54,3.54,0,0,1,.59-1.94l2.31,3.62h1.72l2.32-3.62a3.53,3.53,0,0,1,.58,1.94,3.22,3.22,0,0,1-1.92,2.95l.5,1.89a5.54,5.54,0,0,0,3-6.48Z"/><path class="cls-12" d="M224,162a13.69,13.69,0,1,1-13.68,13.7h0A13.7,13.7,0,0,1,224,162m0-.75a14.44,14.44,0,1,0,14.44,14.44A14.45,14.45,0,0,0,224,161.24Z"/><path class="cls-12" d="M296.23,162a13.69,13.69,0,1,1-13.67,13.71v0A13.69,13.69,0,0,1,296.23,162h0m0-.75a14.44,14.44,0,1,0,14.43,14.45h0A14.46,14.46,0,0,0,296.23,161.24Z"/><path class="cls-12" d="M368.48,162a13.69,13.69,0,1,1-13.68,13.7h0A13.69,13.69,0,0,1,368.47,162h0m0-.75a14.44,14.44,0,1,0,14.43,14.45h0A14.44,14.44,0,0,0,368.48,161.24Z"/><path class="cls-12" d="M224,234.66a13.69,13.69,0,1,1-13.68,13.7v0A13.7,13.7,0,0,1,224,234.66m0-.75a14.44,14.44,0,1,0,14.44,14.44h0A14.46,14.46,0,0,0,224,233.91Z"/><path class="cls-12" d="M368.48,234.66a13.69,13.69,0,1,1-13.68,13.7v0a13.69,13.69,0,0,1,13.68-13.68m0-.75a14.44,14.44,0,1,0,14.43,14.45v0A14.45,14.45,0,0,0,368.48,233.91Z"/><path class="cls-12" d="M296.23,307.33A13.68,13.68,0,1,1,282.56,321v0a13.69,13.69,0,0,1,13.68-13.68m0-.75A14.43,14.43,0,1,0,310.66,321h0a14.45,14.45,0,0,0-14.43-14.43Z"/><path class="cls-12" d="M368.48,307.33A13.68,13.68,0,1,1,354.8,321v0a13.69,13.69,0,0,1,13.68-13.68m0-.75A14.43,14.43,0,1,0,382.91,321a14.43,14.43,0,0,0-14.43-14.43Z"/><path class="cls-12" d="M296.23,380a13.68,13.68,0,1,1-13.67,13.69A13.68,13.68,0,0,1,296.23,380h0m0-.75a14.43,14.43,0,1,0,14.43,14.43h0A14.45,14.45,0,0,0,296.23,379.24Z"/><path class="cls-10" d="M360.05,259.53a1.76,1.76,0,0,1,1.26-1.32c.74-.21,1.53-1.49,1.29-5.2s-.11-7.32.58-9.11,3-2,3-2,.35-1.42,3.18-1,5.23,3.65,5.23,6.19-.87,9.07.55,10.3a5.52,5.52,0,0,1,1.73,2.16"/><path class="cls-12" d="M165.43,248.35a13.67,13.67,0,0,1-8.73,12.75c0,.26,0,.52,0,.78a14.41,14.41,0,0,0,9.43-13.52v0a14.45,14.45,0,0,0-8.28-13c0,.26-.08.51-.11.77A13.67,13.67,0,0,1,165.43,248.35Z"/><path class="cls-12" d="M356.67,401.24a13.67,13.67,0,0,1,10.12-21.18l.56-.78a14.4,14.4,0,0,0-10.93,22.9C356.5,401.87,356.58,401.56,356.67,401.24Z"/><path class="cls-12" d="M223.56,379.24c-.16,0-.31,0-.46,0l.5.72a13.67,13.67,0,0,1,9.89,23.07c.07.29.14.59.2.89a14.43,14.43,0,0,0-10.13-24.71Z"/><path class="cls-7" d="M436.09,254.75A139.77,139.77,0,0,0,289.72,115.14C218.86,118.4,161,175.39,156.82,246.21a139.55,139.55,0,0,0,52.64,118c16.2,12.86,26,32.12,26,52.8v1.3A23.51,23.51,0,0,0,259,441.85h72.34a23.63,23.63,0,0,0,23.63-23.63v-.53c0-20.45,9.89-39.43,26.14-51.84A139.48,139.48,0,0,0,436.09,254.75Z"/><circle class="cls-6" cx="296.88" cy="248.42" r="48.77"/><path class="cls-11" d="M296.89,295.65a46.26,46.26,0,1,1,46.22-46.27A46.22,46.22,0,0,1,296.89,295.65Zm0-97a50.47,50.47,0,1,0,50.68,50.48A50.61,50.61,0,0,0,296.86,198.62Z"/><path class="cls-11" d="M284,271.74a23.17,23.17,0,0,1-13-21.11,23.7,23.7,0,0,1,4-13.3l16.67,24.85h10.08l16.66-24.85a23.77,23.77,0,0,1,4,13.3A23.36,23.36,0,0,1,311.06,271l3.22,12.3a38,38,0,0,0,2-66.38l-19.34,29.88-19.17-30a38,38,0,0,0,3.13,67.15Z"/><circle class="cls-3" cx="224.6" cy="320.85" r="14"/><path class="cls-12" d="M224,313.48a7.41,7.41,0,1,0,7.41,7.41,7.41,7.41,0,0,0-7.41-7.41Zm0,14.16a6.76,6.76,0,1,1,6.76-6.76h0a6.75,6.75,0,0,1-6.75,6.75Z"/><path class="cls-11" d="M229.37,319.42h0a5.6,5.6,0,0,0-2.44-3.24l-.21.32L224,320.7h0l-2.69-4.21-.2-.31a5.6,5.6,0,0,0-2.44,3.24h0a5.54,5.54,0,0,0,3,6.48l.5-1.89a3.24,3.24,0,0,1-1.92-2.95,3.53,3.53,0,0,1,.58-1.94l2.32,3.62h1.72l2.31-3.62a3.38,3.38,0,0,1,.59,1.94,3.22,3.22,0,0,1-1.92,2.95l.49,1.89a5.52,5.52,0,0,0,2.44-2.22A5.39,5.39,0,0,0,229.37,319.42Z"/><path class="cls-12" d="M224,307.33A13.68,13.68,0,1,1,210.3,321v0A13.7,13.7,0,0,1,224,307.31m0-.75A14.43,14.43,0,1,0,238.42,321,14.44,14.44,0,0,0,224,306.56Z"/></svg>