<svg id="Layer_1" data-name="Layer 1" xmlns="http://www.w3.org/2000/svg" viewBox="0 0 592.95 592.95"><defs><style>.cls-1{fill:#f5cd56;}.cls-1,.cls-5{stroke:#f9e39f;stroke-miterlimit:10;stroke-width:5px;}.cls-2{fill:#f9e39f;}.cls-3{font-size:26px;fill:#00a2df;font-family:ProximaNova-Bold, Proxima Nova;font-weight:700;}.cls-4{fill:#1ea1dc;}.cls-5{fill:none;}.cls-6{fill:#1ea0dc;}.cls-7{fill:#fff;}</style></defs><path class="cls-1" d="M435.61,254.75A139.77,139.77,0,0,0,289.24,115.14c-70.86,3.26-128.69,60.25-132.9,131.07a139.53,139.53,0,0,0,52.65,118c16.19,12.86,26,32.12,26,52.8v1.3a23.51,23.51,0,0,0,23.51,23.51h72.34a23.63,23.63,0,0,0,23.63-23.63v-.53c0-20.45,9.89-39.43,26.14-51.84A139.48,139.48,0,0,0,435.61,254.75Z"/><path class="cls-2" d="M408.35,244a37,37,0,0,1,9-64.21q-3.5-6.24-7.59-12.11a50.35,50.35,0,0,0-10.89,6.55L389,168.51a3.7,3.7,0,0,0-4.69,1l-10,13.31a3.7,3.7,0,0,0,.4,4.76l8.32,7.93a50.63,50.63,0,0,0-3.28,12.84l-11.08,3a3.69,3.69,0,0,0-2.62,4l2.35,16.45a3.71,3.71,0,0,0,3.65,3.09l11.48-.29a50.31,50.31,0,0,0,6.79,11.4l-5.73,10a3.7,3.7,0,0,0,1,4.68l13.32,9.95a3.68,3.68,0,0,0,4.76-.4l7.92-8.31a50.39,50.39,0,0,0,12.85,3.28l3,11.09a3.71,3.71,0,0,0,4,2.62l2.2-.32a146.94,146.94,0,0,0,2.48-27c0-.2,0-.39,0-.58A36.83,36.83,0,0,1,408.35,244Z"/><path class="cls-2" d="M335.69,119.57,333,125.51a32.87,32.87,0,0,0-8.6.69L320.18,120a2.41,2.41,0,0,0-3-.78l-9.63,4.94a2.41,2.41,0,0,0-1.13,2.9l2.59,7a32.84,32.84,0,0,0-5.59,6.58l-7.33-1.43a2.41,2.41,0,0,0-2.68,1.58l-3.33,10.29a2.42,2.42,0,0,0,1.26,2.85l6.78,3.13a33.27,33.27,0,0,0,.69,8.59l-6.19,4.18a2.42,2.42,0,0,0-.77,3l4.92,9.63a2.4,2.4,0,0,0,2.89,1.13l7-2.59a32.74,32.74,0,0,0,6.58,5.58l-1.43,7.34a2.4,2.4,0,0,0,1.58,2.67l10.29,3.33a2.41,2.41,0,0,0,2.85-1.25l3.12-6.79a32.92,32.92,0,0,0,8.61-.69l4.17,6.2a2.41,2.41,0,0,0,3,.78l9.63-4.94a2.4,2.4,0,0,0,1.13-2.9l-2.59-7a33.12,33.12,0,0,0,5.59-6.58l7.33,1.43a2.4,2.4,0,0,0,2.68-1.58l3.32-10.29a2.39,2.39,0,0,0-1.25-2.85l-6.78-3.13a33.42,33.42,0,0,0-.69-8.61l6.19-4.16a2.4,2.4,0,0,0,.77-3l-4.92-9.63a2.43,2.43,0,0,0-2.9-1.13l-7,2.59a32.68,32.68,0,0,0-6.57-5.58l1.07-5.51A157.37,157.37,0,0,0,335.69,119.57Zm11.25,44.18a16.42,16.42,0,1,1-10.59-20.67A16.44,16.44,0,0,1,346.94,163.75Z"/><path class="cls-2" d="M275.81,314.09l-12.37-4.59a58.32,58.32,0,0,0-2.36-15.06l10.33-8.16a4.24,4.24,0,0,0,1-5.41l-10-16.28a4.25,4.25,0,0,0-5.25-1.61l-12,5.5a58.07,58.07,0,0,0-12.31-8.94l1.53-13.1a4.25,4.25,0,0,0-3.14-4.5l-18.56-4.46a4.24,4.24,0,0,0-4.84,2.58l-4.59,12.37a58.54,58.54,0,0,0-15.05,2.36L180,244.46a4.24,4.24,0,0,0-5.4-1l-16.29,10a4.27,4.27,0,0,0-1.59,5.26l5.49,12a57.58,57.58,0,0,0-4.14,4.92,214.8,214.8,0,0,0,54.43,93.58,57.75,57.75,0,0,0,8.89-1.86l8.17,10.34a4.24,4.24,0,0,0,5.4,1l16.28-10a4.25,4.25,0,0,0,1.61-5.26l-5.5-12a58.18,58.18,0,0,0,8.95-12.32l13.09,1.53a4.24,4.24,0,0,0,4.51-3.14l4.46-18.56A4.24,4.24,0,0,0,275.81,314.09Zm-42.67,3.78a29.13,29.13,0,1,1-21.51-35.13A29.12,29.12,0,0,1,233.14,317.87Z"/><path class="cls-2" d="M348.78,234.23l-1.84,5.63a26.51,26.51,0,0,0-6.72,1.32l-.13-.16a39.85,39.85,0,0,1-.76,10.78,17.1,17.1,0,1,1-7.64,16.48,40,40,0,0,1-12.95,10.8,1.89,1.89,0,0,0,.14,1.77l4.76,7.13a1.9,1.9,0,0,0,2.38.63l5.28-2.68a25.69,25.69,0,0,0,5.69,3.8l-.46,5.91a1.91,1.91,0,0,0,1.49,2l8.4,1.68a1.91,1.91,0,0,0,2.13-1.24l1.84-5.63a26.11,26.11,0,0,0,6.71-1.33l3.85,4.5a1.91,1.91,0,0,0,2.44.33l7.13-4.75a1.91,1.91,0,0,0,.63-2.38l-2.68-5.28a26.33,26.33,0,0,0,3.8-5.68l5.9.45a1.9,1.9,0,0,0,2-1.48l1.68-8.41a1.89,1.89,0,0,0-1.24-2.12l-5.63-1.85a26.44,26.44,0,0,0-1.32-6.71l4.5-3.84a1.93,1.93,0,0,0,.33-2.45l-4.76-7.12a1.91,1.91,0,0,0-2.39-.63L366,246.34a26.25,26.25,0,0,0-5.68-3.81l.45-5.9a1.9,1.9,0,0,0-1.48-2L350.91,233A1.91,1.91,0,0,0,348.78,234.23Z"/><text class="cls-3" transform="translate(124.79 314.16) rotate(-105.29)">M</text><text class="cls-3" transform="matrix(-0.11, -0.99, 0.99, -0.11, 117.57, 284.83)">U</text><text class="cls-3" transform="translate(115.36 257.76) rotate(-88.56)">L</text><text class="cls-3" transform="matrix(0.15, -0.99, 0.99, 0.15, 116.36, 236.02)">E</text><text class="cls-3" transform="translate(120.31 213.11) rotate(-74)">S</text><text class="cls-3" transform="matrix(0.41, -0.91, 0.91, 0.41, 127.25, 190.46)">O</text><text class="cls-3" transform="matrix(0.53, -0.85, 0.85, 0.53, 139.4, 165.3)">F</text><text class="cls-3" transform="matrix(0.64, -0.77, 0.77, 0.64, 152.09, 146.17)">T</text><text class="cls-3" transform="translate(167.48 128.58) rotate(-44.39)"> </text><text class="cls-3" transform="matrix(0.79, -0.62, 0.62, 0.79, 178.25, 118.31)">P</text><text class="cls-3" transform="translate(197.67 103.69) rotate(-30.45)">R</text><text class="cls-3" transform="matrix(0.93, -0.38, 0.38, 0.93, 219.26, 91.55)">O</text><text class="cls-3" transform="translate(245.36 81.66) rotate(-13.37)">G</text><text class="cls-3" transform="matrix(1, -0.09, 0.09, 1, 271.57, 76.11)">R</text><text class="cls-3" transform="translate(296.33 74.39) rotate(2.72)">A</text><text class="cls-3" transform="translate(322.06 76.05) rotate(11.56)">M</text><text class="cls-3" transform="translate(351.57 83.11) rotate(18.76)"> </text><text class="cls-3" transform="translate(365.6 88.06) rotate(25.12)">&amp;</text><text class="cls-3" transform="translate(387.9 99.32) rotate(31.43)"> </text><text class="cls-3" transform="matrix(0.79, 0.62, -0.62, 0.79, 400.51, 107.14)">O</text><text class="cls-3" transform="translate(422.02 124.97) rotate(46.42)">P</text><text class="cls-3" transform="translate(438.39 142.99) rotate(53.92)">E</text><text class="cls-3" transform="matrix(0.48, 0.88, -0.88, 0.48, 451.69, 162.07)">R</text><text class="cls-3" transform="translate(463.05 184.12) rotate(69.58)">A</text><text class="cls-3" transform="translate(471.04 207.01) rotate(76.89)">T</text><text class="cls-3" transform="translate(475.69 229.86) rotate(83.03)">I</text><text class="cls-3" transform="matrix(0.02, 1, -1, 0.02, 477.31, 245.04)">O</text><text class="cls-3" transform="matrix(-0.15, 0.99, -0.99, -0.15, 476.9, 272.98)">N</text><text class="cls-3" transform="translate(472.26 299.61) rotate(106.5)">S</text><rect class="cls-4" x="237.5" y="454.1" width="117" height="25" rx="12.5"/><rect class="cls-4" x="237.6" y="490.35" width="117" height="25" rx="12.5"/><rect class="cls-4" x="260.6" y="525.35" width="71" height="25" rx="12.5"/><path class="cls-5" d="M436.09,254.75A139.77,139.77,0,0,0,289.72,115.14C218.86,118.4,161,175.39,156.82,246.21a139.55,139.55,0,0,0,52.64,118c16.2,12.86,26,32.12,26,52.8v1.3A23.51,23.51,0,0,0,259,441.85h72.34a23.63,23.63,0,0,0,23.63-23.63v-.53c0-20.45,9.89-39.43,26.14-51.84A139.48,139.48,0,0,0,436.09,254.75Z"/><path class="cls-6" d="M296.25,116.69m0,.73"/><path class="cls-5" d="M436.09,254.75A139.77,139.77,0,0,0,289.72,115.14C218.86,118.4,161,175.39,156.82,246.21a139.55,139.55,0,0,0,52.64,118c16.2,12.86,26,32.12,26,52.8v1.3A23.51,23.51,0,0,0,259,441.85h72.34a23.63,23.63,0,0,0,23.63-23.63v-.53c0-20.45,9.89-39.43,26.14-51.84A139.48,139.48,0,0,0,436.09,254.75Z"/><circle class="cls-4" cx="295.85" cy="249.74" r="54.72"/><path class="cls-7" d="M295.86,302.73a51.9,51.9,0,1,1,51.86-51.91A51.86,51.86,0,0,1,295.86,302.73Zm0-108.87a56.63,56.63,0,1,0,56.86,56.64A56.79,56.79,0,0,0,295.83,193.86Z"/><path class="cls-7" d="M281.44,275.9a26,26,0,0,1-14.53-23.68,26.55,26.55,0,0,1,4.48-14.92l18.7,27.88H301.4l18.69-27.88a26.65,26.65,0,0,1,4.49,14.92A26.22,26.22,0,0,1,311.76,275l3.61,13.81a42.6,42.6,0,0,0,2.24-74.48L295.9,247.88l-21.5-33.67a42.59,42.59,0,0,0,3.5,75.35Z"/></svg>